<?xml version="1.0" encoding="UTF-8" standalone="no"?>
<!-- Created with Inkscape (http://www.inkscape.org/) -->

<svg
   xmlns:dc="http://purl.org/dc/elements/1.1/"
   xmlns:cc="http://creativecommons.org/ns#"
   xmlns:rdf="http://www.w3.org/1999/02/22-rdf-syntax-ns#"
   xmlns:svg="http://www.w3.org/2000/svg"
   xmlns="http://www.w3.org/2000/svg"
   xmlns:sodipodi="http://sodipodi.sourceforge.net/DTD/sodipodi-0.dtd"
   xmlns:inkscape="http://www.inkscape.org/namespaces/inkscape"
   width="26.629881mm"
   height="26.176579mm"
   viewBox="0 0 26.629881 26.176579"
   version="1.1"
   id="svg8"
   inkscape:version="0.92.2 2405546, 2018-03-11"
   sodipodi:docname="edit.svg">
  <defs
     id="defs2" />
  <sodipodi:namedview
     id="base"
     pagecolor="#ffffff"
     bordercolor="#666666"
     borderopacity="1.0"
     inkscape:pageopacity="0.0"
     inkscape:pageshadow="2"
     inkscape:zoom="8.7643836"
     inkscape:cx="40.37139"
     inkscape:cy="52.241271"
     inkscape:document-units="mm"
     inkscape:current-layer="layer1"
     showgrid="true"
     showguides="false"
     inkscape:window-width="1920"
     inkscape:window-height="1017"
     inkscape:window-x="0"
     inkscape:window-y="27"
     inkscape:window-maximized="1">
    <inkscape:grid
       type="xygrid"
       id="grid10"
       originx="-43.616993"
       originy="-184.29947" />
  </sodipodi:namedview>
  <metadata
     id="metadata5">
    <rdf:RDF>
      <cc:Work
         rdf:about="">
        <dc:format>image/svg+xml</dc:format>
        <dc:type
           rdf:resource="http://purl.org/dc/dcmitype/StillImage" />
        <dc:title></dc:title>
      </cc:Work>
    </rdf:RDF>
  </metadata>
  <g
     inkscape:label="Layer 1"
     inkscape:groupmode="layer"
     id="layer1"
     transform="translate(-43.616992,-86.523958)">
    <path
       sodipodi:type="spiral"
       style="fill:#ffffff;fill-rule:evenodd;stroke:#000000;stroke-width:0.26458332;opacity:1;stroke-linejoin:bevel;stroke-linecap:butt;paint-order:markers fill stroke"
       id="path66"
       sodipodi:cx="48.683334"
       sodipodi:cy="108.0875"
       sodipodi:expansion="1"
       sodipodi:revolution="3"
       sodipodi:radius="5.454525"
       sodipodi:argument="-20.175373"
       sodipodi:t0="0"
       d="m 48.683334,108.0875 c 0.06633,-0.26531 0.390365,-0.0415 0.440973,0.11024 0.137143,0.41118 -0.292616,0.74837 -0.661459,0.77171 -0.659774,0.0417 -1.124454,-0.59901 -1.10243,-1.21268 0.03232,-0.90057 0.908199,-1.50792 1.763889,-1.43316 1.140501,0.0996 1.894301,1.2182 1.763888,2.31511 -0.164112,1.38034 -1.528545,2.28214 -2.86632,2.09461 -1.620226,-0.22712 -2.670826,-1.83907 -2.425346,-3.41753 0.289291,-1.86016 2.149719,-3.06003 3.968752,-2.75608 2.100145,0.35094 3.449589,2.46044 3.086803,4.51997 -0.412221,2.34017 -2.771212,3.83939 -5.071182,3.41753 -2.58022,-0.47326 -4.229372,-3.08202 -3.748261,-5.62239 0.534124,-2.8203 3.392868,-4.61949 6.173613,-4.07899" />
    <path
       style="fill:#ffeeaa;stroke:#000000;stroke-width:0.26458332px;stroke-linecap:butt;stroke-linejoin:bevel;stroke-opacity:1;opacity:1;paint-order:markers fill stroke"
       d="m 50.270833,103.85418 h 1.322916 l 1.322917,1.32291 v 1.32292 l 15.875,-15.875003 v -1.322916 l -1.322917,-1.322917 h -1.322917 z"
       id="path20"
       inkscape:connector-curvature="0" />
    <path
       style="fill:#ffeeaa;stroke:#000000;stroke-width:0.26458332px;stroke-linecap:butt;stroke-linejoin:bevel;stroke-opacity:1;opacity:1;paint-order:markers fill stroke"
       d="m 51.593749,103.85418 15.875,-15.875008 1.322917,1.322917 -15.875,15.875001 z"
       id="path22"
       inkscape:connector-curvature="0" />
    <path
       style="fill:none;stroke:#000000;stroke-width:0.26458332px;stroke-linecap:butt;stroke-linejoin:bevel;stroke-opacity:1;opacity:1;paint-order:markers fill stroke"
       d="m 48.947916,107.82292 1.322917,-3.96875 h 1.322916 l 1.322917,1.32291 V 106.5 Z"
       id="path24"
       inkscape:connector-curvature="0" />
    <path
       style="fill:none;stroke:#000000;stroke-width:0.26458332px;stroke-linecap:butt;stroke-linejoin:bevel;stroke-opacity:1;opacity:1;paint-order:markers fill stroke"
       d="m 49.477083,106.5 h 0.264583 l 0.529167,0.52917 v 0.26458 l -1.058334,0.26458 z"
       id="path32"
       inkscape:connector-curvature="0" />
    <path
       style="stroke-width:0.04464286;opacity:1;stroke-linejoin:bevel;stroke-linecap:butt;paint-order:markers fill stroke"
       d="m 186.74207,405.75487 c 0,-0.0343 0.49789,-2.05203 0.62893,-2.5488 0.0422,-0.16004 0.0524,-0.16741 0.23261,-0.16741 0.18508,0 0.20342,0.015 1.02506,0.83748 l 0.83662,0.83748 v 0.20105 0.20105 l -1.36161,0.33967 c -0.74888,0.18682 -1.36161,0.32159 -1.36161,0.29948 z"
       id="path34"
       inkscape:connector-curvature="0"
       transform="scale(0.26458333)" />
    <path
       style="stroke-width:0.04464286;opacity:1;stroke-linejoin:bevel;stroke-linecap:butt;paint-order:markers fill stroke"
       d="m 186.78672,405.68771 c 0,-0.0205 0.14206,-0.61298 0.31569,-1.31651 0.3421,-1.38617 0.3414,-1.38472 0.61544,-1.28282 0.0649,0.0241 0.4846,0.40933 0.9327,0.856 0.76513,0.76267 0.81474,0.82224 0.81474,0.97826 0,0.19345 0.15009,0.13679 -1.31697,0.49712 -1.10478,0.27136 -1.3616,0.32189 -1.3616,0.26795 z"
       id="path36"
       inkscape:connector-curvature="0"
       transform="scale(0.26458333)" />
    <path
       style="stroke-width:0.04464286;opacity:1;stroke-linejoin:bevel;stroke-linecap:butt;paint-order:markers fill stroke"
       d=""
       id="path38"
       inkscape:connector-curvature="0"
       transform="scale(0.26458333)" />
    <path
       style="fill:#ac9393;stroke:#000000;stroke-width:0.26458332px;stroke-linecap:butt;stroke-linejoin:bevel;stroke-opacity:1;opacity:1;paint-order:markers fill stroke"
       d="m 50.270833,103.85417 c 1.322916,0 1.322916,0 1.322916,0 l 1.322917,1.32291 V 106.5 l -2.38125,0.79375 c 0,0 -0.264583,-0.79375 -0.529167,-0.52917 C 49.741666,107.02917 49.477083,106.5 49.477083,106.5 Z"
       id="path37"
       inkscape:connector-curvature="0" />
    <path
       style="fill:#ff8080;stroke:#000000;stroke-width:0.26458332px;stroke-linecap:butt;stroke-linejoin:bevel;stroke-opacity:1;opacity:1;paint-order:markers fill stroke"
       d="m 66.145832,87.979167 1.322917,-1.322917 h 1.322917 l 1.322916,1.322917 v 1.322917 L 68.791666,90.625 v -1.322916 l -1.322917,-1.322917 z"
       id="path41"
       inkscape:connector-curvature="0" />
  </g>
</svg>
