<?xml version="1.0" encoding="utf-8"?>
<!-- Created with sK1 2.0rc3 (http://sk1project.net/) -->
<svg xmlns:rdf="http://www.w3.org/1999/02/22-rdf-syntax-ns#" xmlns="http://www.w3.org/2000/svg" xmlns:svg="http://www.w3.org/2000/svg" height="841.88976378" viewBox="0 0 595.275590551 841.88976378" width="595.275590551" version="1.1" xmlns:cc="http://creativecommons.org/ns#" xmlns:xlink="http://www.w3.org/1999/xlink" id="svg2" xmlns:dc="http://purl.org/dc/elements/1.1/">

<g>
	<path style="stroke-width:2.2677;stroke:#2d2c2b;fill-rule:evenodd;stroke-miterlimit:10.433;fill:#660033;" d="M 32.9795,438.8977 L 119.1515,525.0697 348.9434,295.2778 262.7714,209.1058 32.9795,438.8977 Z" />
	<path style="stroke-width:2.2677;stroke:#2d2c2b;fill-rule:evenodd;stroke-miterlimit:10.433;fill:#ffed00;" d="M 348.9434,295.2778 L 435.1153,209.1058 348.9434,122.9339 262.7714,209.1058" />
	<path style="stroke:#2d2c2b;stroke-width:2.2677;stroke-miterlimit:10.433;fill:#5b0033;" d="M 119.1515,525.0697 L 90.4275,611.2416 4.2555,525.0697 32.9795,438.8977" />
	<path style="stroke:#2d2c2b;stroke-width:2.2677;stroke-miterlimit:10.433;fill:#660033;" d="M 119.1515,525.0697 L 90.4275,611.2416 406.3913,295.2778 435.1153,209.1058 119.1515,525.0697 Z" />
	<path style="stroke-width:2.2677;stroke:#2d2c2b;fill-rule:evenodd;stroke-miterlimit:10.433;fill:#ffed00;" d="M 348.9434,295.2778 L 348.9434,352.7258 406.3913,295.2778 435.1153,209.1058 348.9434,295.2778 Z" />
	<path style="stroke:#2d2c2b;stroke-width:2.2677;stroke-miterlimit:10.433;fill:#ffffff;" d="M 21.7013,472.9087 L 15.68,490.9727 101.4842,576.7769 345.3487,341.9444 414.5941,274.2043 423.6261,245.6029 345.3487,323.8804 107.5055,555.7022 21.7013,472.9087 Z" />
</g>
<g>
</g>
</svg>