<?xml version="1.0" encoding="utf-8"?>
<!-- Created with sK1 2.0rc3 (http://sk1project.net/) -->
<svg xmlns:rdf="http://www.w3.org/1999/02/22-rdf-syntax-ns#" xmlns="http://www.w3.org/2000/svg" xmlns:svg="http://www.w3.org/2000/svg" height="841.88976378" viewBox="0 0 595.275590551 841.88976378" width="595.275590551" version="1.1" xmlns:cc="http://creativecommons.org/ns#" xmlns:xlink="http://www.w3.org/1999/xlink" id="svg2" xmlns:dc="http://purl.org/dc/elements/1.1/">

<g>
	<path style="stroke-width:0.2835;stroke:#09262f;fill-rule:evenodd;stroke-miterlimit:10.433;fill:#000000;" d="M 150.2654,709.7164 C 103.1897,709.7164 65.0129,671.5396 65.0129,624.4639 L 65.0129,319.8068 C 65.0129,272.731 103.1897,234.5542 150.2654,234.5542 L 411.4182,234.5542 C 458.4939,234.5542 496.6708,272.731 496.6708,319.8068 L 496.6708,624.4639 C 496.6708,671.5396 458.4939,709.7164 411.4182,709.7164 L 150.2654,709.7164 Z" />
</g>
<g>
	<path style="stroke-width:0.2835;stroke:#ffffff;fill-rule:evenodd;stroke-miterlimit:10.433;fill:#ffffff;" d="M 340.1187,684.7138 L 340.1187,234.5459 440.156,234.5459 440.156,684.7138 340.1187,684.7138 Z" />
	<path style="stroke-width:0.2835;stroke:#ffffff;fill-rule:evenodd;stroke-miterlimit:10.433;fill:#ffffff;" d="M 140.044,484.6392 L 140.044,234.5459 240.0814,234.5459 240.0814,484.6392 140.044,484.6392 Z" />
</g>
<g>
	<path style="stroke-width:0.2835;stroke:#2d2c2b;fill-rule:evenodd;stroke-miterlimit:10.433;fill:#000000;" d="M 348.6409,603.4537 C 348.6409,603.4537 418.4136,581.6267 435.4016,585.0362 452.3897,588.4457 365.629,606.8632 365.629,606.8632 365.629,606.8632 322.2486,616.0719 348.6409,603.4537 Z" />
	<path style="stroke-width:0.2835;stroke:#2d2c2b;fill-rule:evenodd;stroke-miterlimit:10.433;fill:#000000;" d="M 348.6409,678.0689 C 348.6409,678.0689 418.4136,656.2419 435.4016,659.6514 452.3897,663.0608 365.629,681.4784 365.629,681.4784 365.629,681.4784 322.2486,690.6871 348.6409,678.0689 Z" />
	<path style="stroke-width:0.2835;stroke:#2d2c2b;fill-rule:evenodd;stroke-miterlimit:10.433;fill:#000000;" d="M 348.6314,653.0524 C 348.6314,653.0524 418.4041,631.2254 435.3921,634.6349 452.3801,638.0444 365.6194,656.4619 365.6194,656.4619 365.6194,656.4619 322.2391,665.6706 348.6314,653.0524 Z" />
	<path style="stroke-width:0.2835;stroke:#2d2c2b;fill-rule:evenodd;stroke-miterlimit:10.433;fill:#000000;" d="M 348.6314,640.7594 C 348.6314,640.7594 418.4041,618.9325 435.3921,622.3419 452.3801,625.7514 365.6194,644.1689 365.6194,644.1689 365.6194,644.1689 322.2391,653.3777 348.6314,640.7594 Z" />
	<path style="stroke-width:0.2835;stroke:#2d2c2b;fill-rule:evenodd;stroke-miterlimit:10.433;fill:#000000;" d="M 351.187,628.0471 C 351.187,628.0471 420.9597,606.2201 437.9477,609.6296 454.9358,613.039 368.175,631.4566 368.175,631.4566 368.175,631.4566 324.7947,640.6653 351.187,628.0471 Z" />
	<path style="stroke-width:0.2835;stroke:#2d2c2b;fill-rule:evenodd;stroke-miterlimit:10.433;fill:#000000;" d="M 348.6314,615.7496 C 348.6314,615.7496 418.4041,593.9226 435.3921,597.3321 452.3801,600.7416 365.6194,619.1591 365.6194,619.1591 365.6194,619.1591 322.2391,628.3679 348.6314,615.7496 Z" />
	<path style="stroke-width:0.2835;stroke:#2d2c2b;fill-rule:evenodd;stroke-miterlimit:10.433;fill:#000000;" d="M 351.1912,665.7683 C 351.1912,665.7683 420.9639,643.9413 437.952,647.3508 454.94,650.7603 368.1793,669.1778 368.1793,669.1778 368.1793,669.1778 324.7989,678.3865 351.1912,665.7683 Z" />
	<path style="stroke-width:0.2835;stroke:#2d2c2b;fill-rule:evenodd;stroke-miterlimit:10.433;fill:#000000;" d="M 352.5202,559.6641 L 352.5202,234.5458 427.8347,234.5458 427.8347,559.6641 352.5202,559.6641 Z" />
	<path style="stroke-width:0.2835;stroke:#ffffff;fill-rule:evenodd;stroke-miterlimit:10.433;fill:#000000;" d="M 171.4399,509.644 C 167.9113,509.644 165.0497,506.7824 165.0497,503.2538 L 165.0497,488.8023 C 165.0497,485.2737 167.9113,482.4121 171.4399,482.4121 L 208.6814,482.4121 C 212.2101,482.4121 215.0716,485.2737 215.0716,488.8023 L 215.0716,503.2538 C 215.0716,506.7824 212.2101,509.644 208.6814,509.644 L 171.4399,509.644 Z" />
</g>
<g>
	<path style="stroke-width:0.2835;stroke:#2d2c2b;fill-rule:evenodd;stroke-miterlimit:10.433;fill:#000000;" d="M 352.5202,559.6641 L 352.5202,234.5458 427.8347,234.5458 427.8347,559.6641 352.5202,559.6641 Z" />
	<path style="stroke-width:0.2835;stroke:#660033;fill-rule:evenodd;stroke-miterlimit:10.433;fill:#000000;" d="M 370.9928,584.6793 C 367.7522,584.6793 365.1242,582.0513 365.1242,578.8107 L 365.1242,565.5387 C 365.1242,562.298 367.7522,559.67 370.9928,559.67 L 408.1884,559.67 C 411.429,559.67 414.0571,562.298 414.0571,565.5387 L 414.0571,578.8107 C 414.0571,582.0513 411.429,584.6793 408.1884,584.6793 L 370.9928,584.6793 Z" />
	<path style="stroke-width:0.2835;stroke:#2d2c2b;fill-rule:evenodd;stroke-miterlimit:10.433;fill:#ffffff;" d="M 167.1305,510.2399 C 164.2546,510.2399 161.9224,507.55 161.9224,504.2332 L 161.9224,490.6488 C 161.9224,487.3319 164.2546,484.6421 167.1305,484.6421 L 209.8562,484.6421 C 212.732,484.6421 215.0643,487.3319 215.0643,490.6488 L 215.0643,504.2332 C 215.0643,507.55 212.732,510.2399 209.8562,510.2399 L 167.1305,510.2399 Z" />
	<path style="fill-rule:evenodd;stroke:#660033;stroke-linecap:round;stroke-miterlimit:10.433;stroke-width:0.2835;fill:#000000;" d="M 152.9858,483.4147 L 152.9858,234.9748 229.2784,234.9748 229.2784,483.4147 152.9858,483.4147 Z" />
	<path style="stroke-width:0.2835;stroke:#660033;fill-rule:evenodd;stroke-miterlimit:10.433;fill:#000000;" d="M 169.6863,505.3688 C 168.0488,505.3688 166.7209,504.0408 166.7209,502.4033 L 166.7209,484.8596 C 166.7209,483.2221 168.0488,481.8941 169.6863,481.8941 L 206.7923,481.8941 C 208.4298,481.8941 209.7577,483.2221 209.7577,484.8596 L 209.7577,502.4033 C 209.7577,504.0408 208.4298,505.3688 206.7923,505.3688 L 169.6863,505.3688 Z" />
</g>
<g>
	<path style="stroke-width:0.2835;stroke:#660033;fill-rule:evenodd;stroke-miterlimit:10.433;fill:#000000;" d="M 153.0773,237.0179 C 153.4045,195.3357 155.9055,175.748 177.1654,140.315 240.9449,90.7087 340.1575,90.7087 403.937,140.315 425.1969,182.8346 428.5771,195.3357 428.9043,237.0179 403.3829,237.0179 377.8616,237.0179 352.3402,237.0179 352.6674,220.345 354.3307,204.0945 340.1575,189.9213 297.6378,168.6614 283.4646,168.6614 240.9449,189.9213 226.7717,204.0945 229.3142,220.345 229.6414,237.0179 204.12,237.0179 178.5987,237.0179 153.0773,237.0179 Z" />
</g>
</svg>