<?xml version="1.0" encoding="utf-8"?>
<!-- Created with sK1 2.0rc3 (http://sk1project.net/) -->
<svg xmlns:rdf="http://www.w3.org/1999/02/22-rdf-syntax-ns#" xmlns="http://www.w3.org/2000/svg" xmlns:svg="http://www.w3.org/2000/svg" height="841.88976378" viewBox="0 0 595.275590551 841.88976378" width="595.275590551" version="1.1" xmlns:cc="http://creativecommons.org/ns#" xmlns:xlink="http://www.w3.org/1999/xlink" id="svg2" xmlns:dc="http://purl.org/dc/elements/1.1/">

<g>
	<path style="stroke-width:2.2677;stroke:#09262f;fill-rule:evenodd;stroke-miterlimit:10.433;fill:#660033;" d="M 150.2654,709.7165 C 103.1897,709.7165 65.0129,672.5086 65.0129,626.6277 L 65.0129,329.7029 C 65.0129,283.822 103.1897,246.6141 150.2654,246.6141 L 411.4182,246.6141 C 458.4939,246.6141 496.6708,283.822 496.6708,329.7029 L 496.6708,626.6277 C 496.6708,672.5086 458.4939,709.7165 411.4182,709.7165 L 150.2654,709.7165 Z" />
</g>
<g>
	<path style="stroke-width:0.2835;stroke:#ffffff;fill-rule:evenodd;stroke-miterlimit:10.433;fill:#ffffff;" d="M 340.1187,684.7138 L 340.1187,234.5459 440.156,234.5459 440.156,684.7138 340.1187,684.7138 Z" />
	<path style="stroke-width:0.0;stroke:#ffffff;fill-rule:evenodd;stroke-miterlimit:10.433;fill:#ffffff;" d="M 140.044,484.6392 L 140.044,234.5459 240.0814,234.5459 240.0814,484.6392 140.044,484.6392 Z" />
</g>
<g>
	<path style="stroke-width:2.2677;stroke:#09262f;fill-rule:evenodd;stroke-miterlimit:10.433;fill:#660033;" d="M 348.6409,603.4537 C 348.6409,603.4537 418.4136,581.6267 435.4016,585.0362 452.3897,588.4457 365.629,606.8632 365.629,606.8632 365.629,606.8632 322.2486,616.0719 348.6409,603.4537 Z" />
	<path style="stroke-width:2.2677;stroke:#09262f;fill-rule:evenodd;stroke-miterlimit:10.433;fill:#660033;" d="M 348.6409,678.0689 C 348.6409,678.0689 418.4136,656.2419 435.4016,659.6514 452.3897,663.0608 365.629,681.4784 365.629,681.4784 365.629,681.4784 322.2486,690.6871 348.6409,678.0689 Z" />
	<path style="stroke-width:2.2677;stroke:#09262f;fill-rule:evenodd;stroke-miterlimit:10.433;fill:#660033;" d="M 348.6314,653.0524 C 348.6314,653.0524 418.4041,631.2254 435.3921,634.6349 452.3801,638.0444 365.6194,656.4619 365.6194,656.4619 365.6194,656.4619 322.2391,665.6706 348.6314,653.0524 Z" />
	<path style="stroke-width:2.2677;stroke:#09262f;fill-rule:evenodd;stroke-miterlimit:10.433;fill:#660033;" d="M 348.6314,640.7594 C 348.6314,640.7594 418.4041,618.9325 435.3921,622.3419 452.3801,625.7514 365.6194,644.1689 365.6194,644.1689 365.6194,644.1689 322.2391,653.3777 348.6314,640.7594 Z" />
	<path style="stroke-width:2.2677;stroke:#09262f;fill-rule:evenodd;stroke-miterlimit:10.433;fill:#660033;" d="M 351.187,628.0471 C 351.187,628.0471 420.9597,606.2201 437.9477,609.6296 454.9358,613.039 368.175,631.4566 368.175,631.4566 368.175,631.4566 324.7947,640.6653 351.187,628.0471 Z" />
	<path style="stroke-width:2.2677;stroke:#09262f;fill-rule:evenodd;stroke-miterlimit:10.433;fill:#660033;" d="M 348.6314,615.7496 C 348.6314,615.7496 418.4041,593.9226 435.3921,597.3321 452.3801,600.7416 365.6194,619.1591 365.6194,619.1591 365.6194,619.1591 322.2391,628.3679 348.6314,615.7496 Z" />
	<path style="stroke-width:2.2677;stroke:#09262f;fill-rule:evenodd;stroke-miterlimit:10.433;fill:#660033;" d="M 351.1912,665.7683 C 351.1912,665.7683 420.9639,643.9413 437.952,647.3508 454.94,650.7603 368.1793,669.1778 368.1793,669.1778 368.1793,669.1778 324.7989,678.3865 351.1912,665.7683 Z" />
	<path style="stroke-width:2.2677;stroke:#09262f;fill-rule:evenodd;stroke-miterlimit:10.433;fill:#660033;" d="M 352.5202,559.6641 L 352.5202,234.5458 427.8347,234.5458 427.8347,559.6641 352.5202,559.6641 Z" />
	<path style="stroke-width:2.2677;stroke:#09262f;fill-rule:evenodd;stroke-miterlimit:10.433;fill:#660033;" d="M 171.4399,509.644 C 167.9113,509.644 165.0497,506.7824 165.0497,503.2538 L 165.0497,488.8023 C 165.0497,485.2737 167.9113,482.4121 171.4399,482.4121 L 208.6814,482.4121 C 212.2101,482.4121 215.0716,485.2737 215.0716,488.8023 L 215.0716,503.2538 C 215.0716,506.7824 212.2101,509.644 208.6814,509.644 L 171.4399,509.644 Z" />
</g>
<g>
	<path style="stroke-width:2.2677;stroke:#09262f;fill-rule:evenodd;stroke-miterlimit:10.433;fill:#660033;" d="M 352.5202,559.6641 L 352.5202,234.5458 427.8347,234.5458 427.8347,559.6641 352.5202,559.6641 Z" />
	<path style="stroke-width:2.2677;stroke:#09262f;fill-rule:evenodd;stroke-miterlimit:10.433;fill:#660033;" d="M 370.9928,584.6793 C 367.7522,584.6793 365.1242,582.0513 365.1242,578.8107 L 365.1242,565.5387 C 365.1242,562.298 367.7522,559.67 370.9928,559.67 L 408.1884,559.67 C 411.429,559.67 414.0571,562.298 414.0571,565.5387 L 414.0571,578.8107 C 414.0571,582.0513 411.429,584.6793 408.1884,584.6793 L 370.9928,584.6793 Z" />
	<path style="stroke-width:2.2677;stroke:#09262f;fill-rule:evenodd;stroke-miterlimit:10.433;fill:#ffffff;" d="M 167.1305,510.2399 C 164.2546,510.2399 161.9224,507.55 161.9224,504.2332 L 161.9224,490.6488 C 161.9224,487.3319 164.2546,484.6421 167.1305,484.6421 L 209.8562,484.6421 C 212.732,484.6421 215.0643,487.3319 215.0643,490.6488 L 215.0643,504.2332 C 215.0643,507.55 212.732,510.2399 209.8562,510.2399 L 167.1305,510.2399 Z" />
	<path style="stroke-width:2.2677;stroke:#09262f;fill-rule:evenodd;stroke-miterlimit:10.433;fill:#660033;" d="M 152.9858,483.4147 L 152.9858,234.9748 229.2784,234.9748 229.2784,483.4147 152.9858,483.4147 Z" />
	<path style="stroke-width:2.2677;stroke:#09262f;fill-rule:evenodd;stroke-miterlimit:10.433;fill:#660033;" d="M 170.6229,506.8893 C 168.9854,506.8893 167.6574,505.5614 167.6574,503.9239 L 167.6574,486.3802 C 167.6574,484.7427 168.9854,483.4147 170.6229,483.4147 L 207.7288,483.4147 C 209.3663,483.4147 210.6943,484.7427 210.6943,486.3802 L 210.6943,503.9239 C 210.6943,505.5614 209.3663,506.8893 207.7288,506.8893 L 170.6229,506.8893 Z" />
</g>
<g>
	<path style="stroke-width:2.2677;stroke:#09262f;fill-rule:evenodd;stroke-miterlimit:10.433;fill:#660033;" d="M 152.2015,235.9562 C 152.5287,194.274 155.0297,174.6863 176.2895,139.2533 240.0691,89.647 339.2816,89.647 403.0612,139.2533 424.321,181.7729 427.7013,194.274 428.0285,235.9562 402.5071,235.9562 376.9857,235.9562 351.4644,235.9562 351.7916,219.2833 353.4549,203.0328 339.2816,188.8596 296.762,167.5997 282.5887,167.5997 240.0691,188.8596 225.8958,203.0328 228.4383,219.2833 228.7655,235.9562 203.2442,235.9562 177.7228,235.9562 152.2015,235.9562 Z" />
</g>
</svg>