<?xml version="1.0" encoding="utf-8"?>
<!-- Created with sK1 2.0rc3 (http://sk1project.net/) -->
<svg xmlns:rdf="http://www.w3.org/1999/02/22-rdf-syntax-ns#" xmlns="http://www.w3.org/2000/svg" xmlns:svg="http://www.w3.org/2000/svg" height="841.88976378" viewBox="0 0 595.275590551 841.88976378" width="595.275590551" version="1.1" xmlns:cc="http://creativecommons.org/ns#" xmlns:xlink="http://www.w3.org/1999/xlink" id="svg2" xmlns:dc="http://purl.org/dc/elements/1.1/">

<g>
	<path style="stroke-width:0.2835;stroke:#ffffff;fill-rule:evenodd;stroke-miterlimit:10.433;fill:#006600;" d="M 168.6754,497.0121 C 166.4679,497.0121 164.6778,494.9474 164.6778,492.4015 L 164.6778,481.9747 C 164.6778,479.4287 166.4679,477.3641 168.6754,477.3641 L 201.4701,477.3641 C 203.6776,477.3641 205.4677,479.4287 205.4677,481.9747 L 205.4677,492.4015 C 205.4677,494.9474 203.6776,497.0121 201.4701,497.0121 L 168.6754,497.0121 Z" />
	<path style="stroke-width:0.2835;stroke:#ffffff;fill-rule:evenodd;stroke-miterlimit:10.433;fill:#006600;" d="M 225.2599,285.2906 L 357.2476,285.2906 C 393.3813,285.2906 422.6846,314.5938 422.6846,350.7275 L 422.6846,584.572 C 422.6846,620.7057 393.3813,650.0089 357.2476,650.0089 L 156.7956,650.0089 C 120.6619,650.0089 91.3587,620.7057 91.3587,584.572 L 91.3587,350.7275 C 91.3587,314.5938 120.6619,285.2906 156.7956,285.2906 L 157.271,285.2906 M 148.4747,285.2811 L 158.4083,285.2208 172.0525,285.138 225.2599,284.8152 225.2599,284.8152 148.4747,285.2811 Z M 216.9403,284.8088 L 216.9403,284.8114 158.1724,284.8114 158.1724,284.8088 216.9403,284.8088 Z M 169.1507,497.4875 C 166.9433,497.4875 165.1532,495.4228 165.1532,492.8769 L 165.1532,482.45 C 165.1532,479.9041 166.9433,477.8394 169.1507,477.8394 L 201.9455,477.8394 C 204.1529,477.8394 205.9431,479.9041 205.9431,482.45 L 205.9431,492.8769 C 205.9431,495.4228 204.1529,497.4875 201.9455,497.4875 L 169.1507,497.4875 Z M 157.271,285.2906 L 225.2599,285.2906 225.2599,476.7719 148.4747,476.7719 148.4747,285.8783 C 151.3515,285.4903 154.288,285.2906 157.271,285.2906 L 157.271,285.2906 Z M 157.271,285.2906 L 225.2599,285.2906 225.2599,285.2906" />
	<path style="stroke-width:0.2835;stroke:#ffffff;fill-rule:evenodd;stroke-miterlimit:10.433;fill:#006600;" d="M 225.2599,285.2906 L 357.2476,285.2906 C 393.3813,285.2906 422.6846,314.5938 422.6846,350.7275 L 422.6846,584.572 C 422.6846,620.7057 393.3813,650.0089 357.2476,650.0089 L 156.7956,650.0089 C 120.6619,650.0089 91.3587,620.7057 91.3587,584.572 L 91.3587,350.7275 C 91.3587,314.5938 120.6619,285.2906 156.7956,285.2906 L 157.271,285.2906 225.2599,285.2906 Z M 148.4747,285.2811 L 158.4083,285.2208 172.0525,285.138 225.2599,284.8152 225.2599,284.8152 148.4747,285.2811 Z M 216.9403,284.8088 L 216.9403,284.8114 158.1724,284.8114 158.1724,284.8088 216.9403,284.8088 Z M 169.1507,497.4875 C 166.9433,497.4875 165.1532,495.4228 165.1532,492.8769 L 165.1532,482.45 C 165.1532,479.9041 166.9433,477.8394 169.1507,477.8394 L 201.9455,477.8394 C 204.1529,477.8394 205.9431,479.9041 205.9431,482.45 L 205.9431,492.8769 C 205.9431,495.4228 204.1529,497.4875 201.9455,497.4875 L 169.1507,497.4875 Z M 157.271,285.2906 L 225.2599,285.2906 225.2599,476.7719 148.4747,476.7719 148.4747,285.8783 C 151.3515,285.4903 154.288,285.2906 157.271,285.2906 L 157.271,285.2906 Z M 157.271,285.2906 L 225.2599,285.2906 225.2599,285.2906 157.271,285.2906 Z" />
	<path style="stroke-width:0.2835;stroke:#ffffff;fill-rule:evenodd;stroke-miterlimit:10.433;fill:#006600;" d="M 225.2599,285.2906 L 357.2476,285.2906 C 393.3813,285.2906 422.6846,314.5938 422.6846,350.7275 L 422.6846,584.572 C 422.6846,620.7057 393.3813,650.0089 357.2476,650.0089 L 156.7956,650.0089 C 120.6619,650.0089 91.3587,620.7057 91.3587,584.572 L 91.3587,350.7275 C 91.3587,314.5938 120.6619,285.2906 156.7956,285.2906 L 157.271,285.2906 225.2599,285.2906 Z M 148.4747,285.2811 L 158.4083,285.2208 172.0525,285.138 225.2599,284.8152 225.2599,284.8152 148.4747,285.2811 Z M 216.9403,284.8088 L 216.9403,284.8114 158.1724,284.8114 158.1724,284.8088 216.9403,284.8088 Z M 169.1507,497.4875 C 166.9433,497.4875 165.1532,495.4228 165.1532,492.8769 L 165.1532,482.45 C 165.1532,479.9041 166.9433,477.8394 169.1507,477.8394 L 201.9455,477.8394 C 204.1529,477.8394 205.9431,479.9041 205.9431,482.45 L 205.9431,492.8769 C 205.9431,495.4228 204.1529,497.4875 201.9455,497.4875 L 169.1507,497.4875 Z M 157.271,285.2906 L 225.2599,285.2906 225.2599,476.7719 148.4747,476.7719 148.4747,285.8783 C 151.3515,285.4903 154.288,285.2906 157.271,285.2906 L 157.271,285.2906 Z M 157.271,285.2906 L 225.2599,285.2906 225.2599,285.2906 157.271,285.2906 Z" />
</g>
<g>
	<path style="stroke-width:0.2835;stroke:#ffffff;fill-rule:evenodd;stroke-miterlimit:10.433;fill:#ffffff;" d="M 302.0451,630.3424 L 302.0451,284.8088 378.8304,284.8088 378.8304,630.3424 302.0451,630.3424 Z" />
</g>
<g>
	<path style="stroke-width:0.2835;stroke:#2d2c2b;fill-rule:evenodd;stroke-miterlimit:10.433;fill:#006600;" d="M 310.3563,530.2144 C 310.3563,530.2144 363.9114,513.4607 376.9509,516.0777 389.9903,518.6947 323.3957,532.8314 323.3957,532.8314 323.3957,532.8314 290.0985,539.8997 310.3563,530.2144 Z" />
	<path style="stroke-width:0.2835;stroke:#2d2c2b;fill-rule:evenodd;stroke-miterlimit:10.433;fill:#006600;" d="M 308.5865,625.242 C 308.5865,625.242 362.1417,608.4883 375.1811,611.1053 388.2205,613.7223 321.626,627.859 321.626,627.859 321.626,627.859 288.3287,634.9273 308.5865,625.242 Z" />
	<path style="stroke-width:0.2835;stroke:#2d2c2b;fill-rule:evenodd;stroke-miterlimit:10.433;fill:#006600;" d="M 308.5792,606.0402 C 308.5792,606.0402 362.1343,589.2865 375.1738,591.9035 388.2132,594.5205 321.6186,608.6572 321.6186,608.6572 321.6186,608.6572 288.3213,615.7255 308.5792,606.0402 Z" />
	<path style="stroke-width:0.2835;stroke:#2d2c2b;fill-rule:evenodd;stroke-miterlimit:10.433;fill:#006600;" d="M 308.5792,588.9354 C 308.5792,588.9354 362.1343,572.1818 375.1738,574.7988 388.2132,577.4158 321.6186,591.5524 321.6186,591.5524 321.6186,591.5524 288.3213,598.6208 308.5792,588.9354 Z" />
	<path style="stroke-width:0.2835;stroke:#2d2c2b;fill-rule:evenodd;stroke-miterlimit:10.433;fill:#006600;" d="M 309.9509,569.149 C 309.9509,569.149 363.506,552.3954 376.5455,555.0124 389.5849,557.6294 322.9903,571.766 322.9903,571.766 322.9903,571.766 289.693,578.8344 309.9509,569.149 Z" />
	<path style="stroke-width:0.2835;stroke:#2d2c2b;fill-rule:evenodd;stroke-miterlimit:10.433;fill:#006600;" d="M 309.759,549.6811 C 309.759,549.6811 363.3142,532.9275 376.3536,535.5445 389.3931,538.1615 322.7985,552.2981 322.7985,552.2981 322.7985,552.2981 289.5012,559.3665 309.759,549.6811 Z" />
	<path style="stroke-width:0.2835;stroke:#2d2c2b;fill-rule:evenodd;stroke-miterlimit:10.433;fill:#006600;" d="M 310.9742,493.6533 L 310.9742,244.1036 368.783,244.1036 368.783,493.6533 310.9742,493.6533 Z" />
</g>
<g>
	<path style="stroke-width:0.2835;stroke:#660033;fill-rule:evenodd;stroke-miterlimit:10.433;fill:#006600;" d="M 324.5632,511.6743 C 322.0758,511.6743 320.0586,509.6571 320.0586,507.1697 L 320.0586,496.9826 C 320.0586,494.4952 322.0758,492.478 324.5632,492.478 L 353.1133,492.478 C 355.6007,492.478 357.6179,494.4952 357.6179,496.9826 L 357.6179,507.1697 C 357.6179,509.6571 355.6007,511.6743 353.1133,511.6743 L 324.5632,511.6743 Z" />
	<path style="fill-rule:evenodd;stroke:#660033;stroke-linecap:round;stroke-miterlimit:10.433;stroke-width:0.2835;fill:#006600;" d="M 463.992,435.1269 L 463.992,244.4329 522.5516,244.4329 522.5516,435.1269 463.992,435.1269 Z" />
	<path style="stroke-width:0.2835;stroke:#660033;fill-rule:evenodd;stroke-miterlimit:10.433;fill:#006600;" d="M 479.2994,452.5553 C 478.0425,452.5553 477.0233,451.536 477.0233,450.2791 L 477.0233,436.8131 C 477.0233,435.5563 478.0425,434.537 479.2994,434.537 L 507.7807,434.537 C 509.0376,434.537 510.0569,435.5563 510.0569,436.8131 L 510.0569,450.2791 C 510.0569,451.536 509.0376,452.5553 507.7807,452.5553 L 479.2994,452.5553 Z" />
</g>
<g>
	<path style="stroke-width:0.2835;stroke:#006600;fill-rule:evenodd;stroke-miterlimit:10.433;fill:#006600;" d="M 327.1111,331.1343 C 295.5657,330.666 311.8991,172.5347 342.7986,144.0121 385.1225,104.9438 452.1351,105.982 491.116,143.0614 520.3932,170.9104 521.7656,211.1607 522.0155,242.9961 522.1685,262.4878 484.945,266.5819 469.7241,254.4051 457.8396,244.8976 469.7444,211.6685 460.6919,198.7861 448.3321,181.1972 387.9593,181.1972 375.5995,197.36 367.8627,207.4774 368.6944,230.7373 368.9443,243.4715 369.323,262.7718 346.413,331.4208 327.1111,331.1343 Z" />
	<path style="stroke-width:0.2835;stroke:#ffffff;fill-rule:evenodd;stroke-miterlimit:10.433;fill:#ffffff;" d="M 170.5449,497.8503 C 167.9199,497.8503 165.7912,495.2837 165.7912,492.1187 L 165.7912,481.2923 C 165.7912,478.1273 167.9199,475.5607 170.5449,475.5607 L 200.1859,475.5607 C 202.8109,475.5607 204.9396,478.1273 204.9396,481.2923 L 204.9396,492.1187 C 204.9396,495.2837 202.8109,497.8503 200.1859,497.8503 L 170.5449,497.8503 Z" />
</g>
</svg>